{"title":"Slut.Puppies.2.XXX.DVDRip.XviD","uid":9038073,"size":2190048928,"categoryP":"porn","categoryS":"movies","magnet":"?xt=urn:btih:51dad6608eb6311fb1f545e4a0fe0f526055ffb2&amp;dn=Slut.Puppies.2.XXX.DVDRip.XviD&amp;tr=udp%3A%2F%2Ftracker.openbittorrent.com%3A80&amp;tr=udp%3A%2F%2Fopen.demonii.com%3A1337&amp;tr=udp%3A%2F%2Ftracker.coppersurfer.tk%3A6969&amp;tr=udp%3A%2F%2Fexodus.desync.com%3A6969","seeders":0,"leechers":1,"uploader":null,"files":4,"time":1381553778,"description":" &lt;a href=&quot;http://bayimg.com/iAAjhAAFN&quot; rel=&quot;nofollow&quot; target=&quot;_NEW&quot;&gt;http://bayimg.com/iAAjhAAFN&lt;/a&gt;\n\nSlut Puppies # 2 The biggest facial! The tightest anals! The hottest girls ever! Eager to please! The supernatural beauty of Amy Reid only gets better with a huge load on her face!! Mia Rose spreads her ass for cock... just for you! Teagan is very polite with cock in her ass and mouth... &quot;yes, please &amp; thank you!&quot; Neighborhood slut, Kara... invites us over to see what her parties are like!! Sasha gets puppy trained! Big booty contortionist Sunny Lane is made for sex!!\nVideo\nFormat: MPEG-4 Visual\nFormat profile: Streaming Video@L1\nFormat settings, BVOP: Yes\nFormat settings, QPel: No\nFormat settings, GMC: No warppoints\nFormat settings, Matrix: Default\nCodec ID: XVID\nCodec ID/Hint: XviD\nDuration: 1h 9mn\nBit rate: 1 258 Kbps\nWidth: 512 pixels\nHeight: 288 pixels\nDisplay aspect ratio: 16/9\nFrame rate: 29.970 fps\nResolution: 24 bits\nColorimetry: 4:2:0\nScan type: Progressive\nBits/(Pixel*Frame): 0.285\nStream size: 630 MiB (90%)\nWriting library: XviD 1.1.2 (UTC 2006-11-01)\n\nAudio\nFormat: MPEG Audio\nFormat version: Version 1\nFormat profile: Layer 3\nCodec ID: 55\nCodec ID/Hint: MP3\nDuration: 1h 9mn\nBit rate mode: Variable\nBit rate: 125 Kbps\nChannel(s): 2 channels\nSampling rate: 48.0 KHz\nResolution: 16 bits\nStream size: 62.6 MiB (9%)\nAlignment: Aligned on interleaves\nInterleave, duration: 24 ms (0.72 video frame)\nInterleave, preload duration: 470 ms ","torrent":{"xt":"urn:btih:51dad6608eb6311fb1f545e4a0fe0f526055ffb2","amp;dn":"Slut.Puppies.2.XXX.DVDRip.XviD","amp;tr":["udp%3A%2F%2Ftracker.openbittorrent.com%3A80","udp%3A%2F%2Fopen.demonii.com%3A1337","udp%3A%2F%2Ftracker.coppersurfer.tk%3A6969","udp%3A%2F%2Fexodus.desync.com%3A6969"],"infoHash":"51dad6608eb6311fb1f545e4a0fe0f526055ffb2","infoHashBuffer":{"type":"Buffer","data":[81,218,214,96,142,182,49,31,177,245,69,228,160,254,15,82,96,85,255,178]},"announce":[],"urlList":[]}}